<svg width="21" height="13" viewBox="0 0 21 13" fill="none" xmlns="http://www.w3.org/2000/svg">
<path d="M20.92 0.62C20.8185 0.375651 20.6243 0.181475 20.38 0.0799999C20.2598 0.028759 20.1307 0.00157999 20 0H15C14.7348 0 14.4804 0.105357 14.2929 0.292893C14.1054 0.48043 14 0.734784 14 1C14 1.26522 14.1054 1.51957 14.2929 1.70711C14.4804 1.89464 14.7348 2 15 2H17.59L12 7.59L8.71 4.29C8.61704 4.19627 8.50644 4.12188 8.38458 4.07111C8.26272 4.02034 8.13201 3.9942 8 3.9942C7.86799 3.9942 7.73728 4.02034 7.61542 4.07111C7.49356 4.12188 7.38296 4.19627 7.29 4.29L1.29 10.29C1.19627 10.383 1.12188 10.4936 1.07111 10.6154C1.02034 10.7373 0.994202 10.868 0.994202 11C0.994202 11.132 1.02034 11.2627 1.07111 11.3846C1.12188 11.5064 1.19627 11.617 1.29 11.71C1.38296 11.8037 1.49356 11.8781 1.61542 11.9289C1.73728 11.9797 1.86799 12.0058 2 12.0058C2.13201 12.0058 2.26272 11.9797 2.38458 11.9289C2.50644 11.8781 2.61704 11.8037 2.71 11.71L8 6.41L11.29 9.71C11.383 9.80373 11.4936 9.87812 11.6154 9.92889C11.7373 9.97966 11.868 10.0058 12 10.0058C12.132 10.0058 12.2627 9.97966 12.3846 9.92889C12.5064 9.87812 12.617 9.80373 12.71 9.71L19 3.41V6C19 6.26522 19.1054 6.51957 19.2929 6.70711C19.4804 6.89464 19.7348 7 20 7C20.2652 7 20.5196 6.89464 20.7071 6.70711C20.8946 6.51957 21 6.26522 21 6V1C20.9984 0.869323 20.9712 0.740222 20.92 0.62Z" fill="white"/>
</svg>
