<svg width="87" height="27" viewBox="0 0 87 27" fill="none" xmlns="http://www.w3.org/2000/svg">
<path d="M8.82422 15.8379H3.19922V19.6465H9.80078V22H0.269531V7.78125H9.78125V10.1543H3.19922V13.543H8.82422V15.8379Z" fill="white"/>
<path d="M15.3574 14.5879L17.1348 11.4336L23 0.5L17.1445 16.6094L20.2793 22H17.252L15.3672 18.6797L13.4922 22H10.4551L13.5898 16.6094L10.5918 11.4336H13.6191L15.3574 14.5879Z" fill="white"/>
<path d="M31.0215 16.8145C31.0215 18.4421 30.6504 19.7474 29.9082 20.7305C29.1725 21.707 28.1764 22.1953 26.9199 22.1953C25.8522 22.1953 24.9896 21.8242 24.332 21.082V26.0625H21.5098V11.4336H24.127L24.2246 12.4688C24.9082 11.6484 25.8001 11.2383 26.9004 11.2383C28.2025 11.2383 29.2148 11.7201 29.9375 12.6836C30.6602 13.6471 31.0215 14.9753 31.0215 16.668V16.8145ZM28.1992 16.6094C28.1992 15.6263 28.0234 14.8678 27.6719 14.334C27.3268 13.8001 26.8223 13.5332 26.1582 13.5332C25.2728 13.5332 24.6641 13.8717 24.332 14.5488V18.875C24.6771 19.5716 25.2923 19.9199 26.1777 19.9199C27.5254 19.9199 28.1992 18.8164 28.1992 16.6094Z" fill="white"/>
<path d="M37.6426 22.1953C36.0931 22.1953 34.8301 21.7201 33.8535 20.7695C32.8835 19.819 32.3984 18.5527 32.3984 16.9707V16.6973C32.3984 15.6361 32.6035 14.6888 33.0137 13.8555C33.4238 13.0156 34.0033 12.3711 34.752 11.9219C35.5072 11.4661 36.3665 11.2383 37.3301 11.2383C38.7754 11.2383 39.9115 11.694 40.7383 12.6055C41.5716 13.5169 41.9883 14.8092 41.9883 16.4824V17.6348H35.2598C35.3509 18.3249 35.6243 18.8783 36.0801 19.2949C36.5423 19.7116 37.125 19.9199 37.8281 19.9199C38.9154 19.9199 39.765 19.526 40.377 18.7383L41.7637 20.291C41.3405 20.89 40.7676 21.3587 40.0449 21.6973C39.3223 22.0293 38.5215 22.1953 37.6426 22.1953ZM37.3203 13.5234C36.7604 13.5234 36.3047 13.7122 35.9531 14.0898C35.6081 14.4674 35.3867 15.0078 35.2891 15.7109H39.2148V15.4863C39.2018 14.8613 39.0326 14.3796 38.707 14.041C38.3815 13.696 37.9193 13.5234 37.3203 13.5234Z" fill="white"/>
<path d="M46.1973 11.4336L46.2852 12.6543C47.0404 11.7103 48.0527 11.2383 49.3223 11.2383C50.4421 11.2383 51.2754 11.5671 51.8223 12.2246C52.3691 12.8822 52.6491 13.8652 52.6621 15.1738V22H49.8398V15.2422C49.8398 14.6432 49.7096 14.2103 49.4492 13.9434C49.1888 13.6699 48.7559 13.5332 48.1504 13.5332C47.3561 13.5332 46.7604 13.8717 46.3633 14.5488V22H43.541V11.4336H46.1973Z" fill="white"/>
<path d="M60.5332 19.0801C60.5332 18.735 60.3607 18.4648 60.0156 18.2695C59.6771 18.0677 59.1302 17.8887 58.375 17.7324C55.862 17.2051 54.6055 16.1374 54.6055 14.5293C54.6055 13.5918 54.9928 12.8105 55.7676 12.1855C56.5488 11.554 57.5677 11.2383 58.8242 11.2383C60.1654 11.2383 61.2363 11.554 62.0371 12.1855C62.8444 12.8171 63.248 13.6374 63.248 14.6465H60.4258C60.4258 14.2428 60.2956 13.9108 60.0352 13.6504C59.7747 13.3835 59.3678 13.25 58.8145 13.25C58.3392 13.25 57.9714 13.3574 57.7109 13.5723C57.4505 13.7871 57.3203 14.0605 57.3203 14.3926C57.3203 14.7051 57.4668 14.959 57.7598 15.1543C58.0592 15.3431 58.5605 15.5091 59.2637 15.6523C59.9668 15.7891 60.5592 15.9453 61.041 16.1211C62.5319 16.668 63.2773 17.6152 63.2773 18.9629C63.2773 19.9264 62.8639 20.7077 62.0371 21.3066C61.2103 21.8991 60.1426 22.1953 58.834 22.1953C57.9486 22.1953 57.1608 22.0391 56.4707 21.7266C55.7871 21.4076 55.25 20.9746 54.8594 20.4277C54.4688 19.8743 54.2734 19.2786 54.2734 18.6406H56.9492C56.9753 19.1419 57.1608 19.526 57.5059 19.793C57.8509 20.0599 58.3132 20.1934 58.8926 20.1934C59.4329 20.1934 59.8398 20.0924 60.1133 19.8906C60.3932 19.6823 60.5332 19.4121 60.5332 19.0801Z" fill="white"/>
<path d="M68.082 22H65.25V11.4336H68.082V22ZM65.084 8.69922C65.084 8.27604 65.224 7.92773 65.5039 7.6543C65.7904 7.38086 66.1777 7.24414 66.666 7.24414C67.1478 7.24414 67.5319 7.38086 67.8184 7.6543C68.1048 7.92773 68.248 8.27604 68.248 8.69922C68.248 9.12891 68.1016 9.48047 67.8086 9.75391C67.5221 10.0273 67.1413 10.1641 66.666 10.1641C66.1908 10.1641 65.8066 10.0273 65.5137 9.75391C65.2272 9.48047 65.084 9.12891 65.084 8.69922Z" fill="white"/>
<path d="M71.1875 22V13.5039H69.6152V11.4336H71.1875V10.5352C71.1875 9.35026 71.526 8.43229 72.2031 7.78125C72.8867 7.1237 73.8405 6.79492 75.0645 6.79492C75.4551 6.79492 75.9336 6.86003 76.5 6.99023L76.4707 9.17773C76.2363 9.11914 75.9499 9.08984 75.6113 9.08984C74.5501 9.08984 74.0195 9.58789 74.0195 10.584V11.4336H76.1191V13.5039H74.0195V22H71.1875Z" fill="white"/>
<path d="M81.5293 18.0059L83.4824 11.4336H86.5098L82.2617 23.6406L82.0273 24.1973C81.3958 25.5775 80.3542 26.2676 78.9023 26.2676C78.4922 26.2676 78.0755 26.2057 77.6523 26.082V23.9434L78.082 23.9531C78.6159 23.9531 79.013 23.8717 79.2734 23.709C79.5404 23.5462 79.7487 23.276 79.8984 22.8984L80.2305 22.0293L76.5293 11.4336H79.5664L81.5293 18.0059Z" fill="white"/>
</svg>
