<svg width="87" height="26" viewBox="0 0 87 26" fill="none" xmlns="http://www.w3.org/2000/svg">
<path d="M8.55469 15.3379H2.92969V19.1465H9.53125V21.5H0V7.28125H9.51172V9.6543H2.92969V13.043H8.55469V15.3379Z" fill="#0C0B0B"/>
<path d="M15.0879 14.0879L16.8652 10.9336L22.7305 0L16.875 16.1094L20.0098 21.5H16.9824L15.0977 18.1797L13.2227 21.5H10.1855L13.3203 16.1094L10.3223 10.9336H13.3496L15.0879 14.0879Z" fill="#0C0B0B"/>
<path d="M30.752 16.3145C30.752 17.9421 30.3809 19.2474 29.6387 20.2305C28.903 21.207 27.9069 21.6953 26.6504 21.6953C25.5827 21.6953 24.7201 21.3242 24.0625 20.582V25.5625H21.2402V10.9336H23.8574L23.9551 11.9688C24.6387 11.1484 25.5306 10.7383 26.6309 10.7383C27.9329 10.7383 28.9453 11.2201 29.668 12.1836C30.3906 13.1471 30.752 14.4753 30.752 16.168V16.3145ZM27.9297 16.1094C27.9297 15.1263 27.7539 14.3678 27.4023 13.834C27.0573 13.3001 26.5527 13.0332 25.8887 13.0332C25.0033 13.0332 24.3945 13.3717 24.0625 14.0488V18.375C24.4076 19.0716 25.0228 19.4199 25.9082 19.4199C27.2559 19.4199 27.9297 18.3164 27.9297 16.1094Z" fill="#0C0B0B"/>
<path d="M37.373 21.6953C35.8236 21.6953 34.5605 21.2201 33.584 20.2695C32.6139 19.319 32.1289 18.0527 32.1289 16.4707V16.1973C32.1289 15.1361 32.334 14.1888 32.7441 13.3555C33.1543 12.5156 33.7337 11.8711 34.4824 11.4219C35.2376 10.9661 36.097 10.7383 37.0605 10.7383C38.5059 10.7383 39.6419 11.194 40.4688 12.1055C41.3021 13.0169 41.7188 14.3092 41.7188 15.9824V17.1348H34.9902C35.0814 17.8249 35.3548 18.3783 35.8105 18.7949C36.2728 19.2116 36.8555 19.4199 37.5586 19.4199C38.6458 19.4199 39.4954 19.026 40.1074 18.2383L41.4941 19.791C41.071 20.39 40.498 20.8587 39.7754 21.1973C39.0527 21.5293 38.252 21.6953 37.373 21.6953ZM37.0508 13.0234C36.4909 13.0234 36.0352 13.2122 35.6836 13.5898C35.3385 13.9674 35.1172 14.5078 35.0195 15.2109H38.9453V14.9863C38.9323 14.3613 38.763 13.8796 38.4375 13.541C38.112 13.196 37.6497 13.0234 37.0508 13.0234Z" fill="#0C0B0B"/>
<path d="M45.9277 10.9336L46.0156 12.1543C46.7708 11.2103 47.7832 10.7383 49.0527 10.7383C50.1725 10.7383 51.0059 11.0671 51.5527 11.7246C52.0996 12.3822 52.3796 13.3652 52.3926 14.6738V21.5H49.5703V14.7422C49.5703 14.1432 49.4401 13.7103 49.1797 13.4434C48.9193 13.1699 48.4863 13.0332 47.8809 13.0332C47.0866 13.0332 46.4909 13.3717 46.0938 14.0488V21.5H43.2715V10.9336H45.9277Z" fill="#0C0B0B"/>
<path d="M60.2637 18.5801C60.2637 18.235 60.0911 17.9648 59.7461 17.7695C59.4076 17.5677 58.8607 17.3887 58.1055 17.2324C55.5924 16.7051 54.3359 15.6374 54.3359 14.0293C54.3359 13.0918 54.7233 12.3105 55.498 11.6855C56.2793 11.054 57.2982 10.7383 58.5547 10.7383C59.8958 10.7383 60.9668 11.054 61.7676 11.6855C62.5749 12.3171 62.9785 13.1374 62.9785 14.1465H60.1562C60.1562 13.7428 60.026 13.4108 59.7656 13.1504C59.5052 12.8835 59.0983 12.75 58.5449 12.75C58.0697 12.75 57.7018 12.8574 57.4414 13.0723C57.181 13.2871 57.0508 13.5605 57.0508 13.8926C57.0508 14.2051 57.1973 14.459 57.4902 14.6543C57.7897 14.8431 58.291 15.0091 58.9941 15.1523C59.6973 15.2891 60.2897 15.4453 60.7715 15.6211C62.2624 16.168 63.0078 17.1152 63.0078 18.4629C63.0078 19.4264 62.5944 20.2077 61.7676 20.8066C60.9408 21.3991 59.873 21.6953 58.5645 21.6953C57.679 21.6953 56.8913 21.5391 56.2012 21.2266C55.5176 20.9076 54.9805 20.4746 54.5898 19.9277C54.1992 19.3743 54.0039 18.7786 54.0039 18.1406H56.6797C56.7057 18.6419 56.8913 19.026 57.2363 19.293C57.5814 19.5599 58.0436 19.6934 58.623 19.6934C59.1634 19.6934 59.5703 19.5924 59.8438 19.3906C60.1237 19.1823 60.2637 18.9121 60.2637 18.5801Z" fill="#0C0B0B"/>
<path d="M67.8125 21.5H64.9805V10.9336H67.8125V21.5ZM64.8145 8.19922C64.8145 7.77604 64.9544 7.42773 65.2344 7.1543C65.5208 6.88086 65.9082 6.74414 66.3965 6.74414C66.8783 6.74414 67.2624 6.88086 67.5488 7.1543C67.8353 7.42773 67.9785 7.77604 67.9785 8.19922C67.9785 8.62891 67.832 8.98047 67.5391 9.25391C67.2526 9.52734 66.8717 9.66406 66.3965 9.66406C65.9212 9.66406 65.5371 9.52734 65.2441 9.25391C64.9577 8.98047 64.8145 8.62891 64.8145 8.19922Z" fill="#0C0B0B"/>
<path d="M70.918 21.5V13.0039H69.3457V10.9336H70.918V10.0352C70.918 8.85026 71.2565 7.93229 71.9336 7.28125C72.6172 6.6237 73.571 6.29492 74.7949 6.29492C75.1855 6.29492 75.6641 6.36003 76.2305 6.49023L76.2012 8.67773C75.9668 8.61914 75.6803 8.58984 75.3418 8.58984C74.2806 8.58984 73.75 9.08789 73.75 10.084V10.9336H75.8496V13.0039H73.75V21.5H70.918Z" fill="#0C0B0B"/>
<path d="M81.2598 17.5059L83.2129 10.9336H86.2402L81.9922 23.1406L81.7578 23.6973C81.1263 25.0775 80.0846 25.7676 78.6328 25.7676C78.2227 25.7676 77.806 25.7057 77.3828 25.582V23.4434L77.8125 23.4531C78.3464 23.4531 78.7435 23.3717 79.0039 23.209C79.2708 23.0462 79.4792 22.776 79.6289 22.3984L79.9609 21.5293L76.2598 10.9336H79.2969L81.2598 17.5059Z" fill="#0C0B0B"/>
</svg>
