<svg width="9" height="16" viewBox="0 0 9 16" fill="none" xmlns="http://www.w3.org/2000/svg">
<path d="M0.75 15.9844C0.604167 15.9844 0.476562 15.9323 0.367188 15.8281C0.257812 15.724 0.203125 15.599 0.203125 15.4531C0.203125 15.3073 0.255208 15.1823 0.359375 15.0781L7.5 7.9375L0.46875 0.921875C0.40625 0.848958 0.361979 0.765625 0.335938 0.671875C0.309896 0.578125 0.309896 0.486979 0.335938 0.398438C0.361979 0.309896 0.40625 0.229167 0.46875 0.15625C0.572917 0.0520833 0.700521 0 0.851562 0C1.0026 0 1.13021 0.0520833 1.23438 0.15625L8.625 7.5625C8.67708 7.61458 8.71615 7.67448 8.74219 7.74219C8.76823 7.8099 8.78125 7.8776 8.78125 7.94531C8.78125 8.01302 8.76823 8.07812 8.74219 8.14062C8.71615 8.20312 8.67708 8.26042 8.625 8.3125L1.125 15.8281C1.07292 15.8802 1.01302 15.9193 0.945312 15.9453C0.877604 15.9714 0.8125 15.9844 0.75 15.9844Z" fill="#888888"/>
</svg>
